<?xml version="1.0" standalone="no"?>
<!DOCTYPE svg PUBLIC "-//W3C//DTD SVG 20010904//EN"
 "http://www.w3.org/TR/2001/REC-SVG-20010904/DTD/svg10.dtd">
<svg version="1.0" xmlns="http://www.w3.org/2000/svg"
 width="16.000000pt" height="16.000000pt" viewBox="0 0 16.000000 16.000000"
 preserveAspectRatio="xMidYMid meet">
<metadata>
Created by potrace 1.11, written by Peter Selinger 2001-2013
</metadata>
<g transform="translate(0.000000,16.000000) scale(0.002105,-0.002105)"
fill="#000000" stroke="none">
<path d="M3607 7224 c-1 -1 -47 -5 -102 -8 -55 -4 -116 -8 -135 -10 -19 -3
-60 -7 -90 -10 -30 -3 -66 -8 -80 -11 -14 -3 -45 -8 -70 -11 -25 -3 -90 -14
-145 -25 -128 -26 -134 -27 -170 -36 -16 -4 -32 -7 -35 -8 -3 -1 -15 -4 -28
-9 -12 -4 -32 -9 -45 -10 -12 -2 -29 -6 -37 -9 -54 -19 -119 -39 -145 -44 -16
-3 -42 -11 -57 -19 -15 -8 -35 -16 -45 -17 -10 -2 -27 -7 -38 -12 -11 -4 -67
-25 -125 -47 -129 -49 -401 -180 -493 -236 -37 -23 -69 -42 -71 -42 -7 0 -170
-108 -188 -123 -9 -9 -25 -20 -36 -26 -28 -15 -256 -195 -310 -244 -214 -198
-406 -421 -544 -632 -43 -66 -81 -125 -86 -131 -31 -44 -165 -312 -197 -394
-16 -41 -33 -80 -37 -86 -5 -7 -11 -20 -13 -30 -2 -11 -22 -72 -45 -138 -22
-65 -42 -132 -45 -148 -3 -17 -11 -40 -17 -52 -6 -11 -10 -22 -9 -24 1 -1 -3
-28 -10 -60 -7 -31 -14 -65 -15 -74 -1 -10 -3 -19 -4 -20 -2 -3 -5 -23 -14
-88 -3 -19 -5 -35 -6 -35 -4 0 -18 -107 -27 -215 -15 -158 -7 -697 11 -751 3
-8 7 -36 10 -64 5 -50 32 -213 41 -250 2 -11 13 -56 23 -100 10 -44 24 -96 30
-115 6 -19 13 -46 16 -60 3 -14 14 -49 25 -78 11 -29 19 -54 19 -55 -2 -4 24
-82 31 -92 3 -5 6 -12 6 -15 2 -13 48 -126 88 -215 41 -90 95 -193 155 -297
12 -21 31 -54 42 -74 11 -19 25 -41 30 -47 6 -7 25 -34 42 -62 18 -27 35 -52
38 -55 3 -3 17 -21 30 -40 103 -148 365 -432 509 -551 29 -24 59 -49 65 -54
12 -11 154 -117 196 -147 257 -180 563 -331 905 -447 91 -30 278 -83 345 -96
3 0 28 -6 55 -13 53 -13 65 -15 190 -37 116 -20 144 -24 205 -31 30 -3 66 -7
79 -9 162 -27 807 -27 1001 0 19 2 58 7 85 10 28 3 61 8 75 10 14 2 45 7 70
10 25 4 64 11 88 16 23 5 59 12 80 15 20 3 53 9 72 14 19 5 46 11 60 14 14 2
32 7 40 10 8 3 26 8 40 10 60 12 207 54 228 65 12 6 22 9 22 6 0 -3 16 1 35 9
19 8 35 13 35 10 0 -2 13 2 29 11 17 8 38 16 48 18 10 2 35 11 57 20 21 9 41
17 45 17 13 0 240 100 321 142 121 63 270 147 280 159 3 3 16 12 30 19 24 12
260 178 270 189 3 3 28 24 55 46 126 99 339 312 427 426 12 16 32 41 43 53
143 168 347 511 450 756 42 100 106 273 109 295 2 11 8 31 14 45 6 14 25 81
42 150 35 144 33 134 59 293 19 112 24 155 36 302 5 56 5 464 1 535 -2 25 -6
68 -10 95 -3 28 -8 73 -11 100 -3 28 -8 64 -10 80 -3 17 -7 41 -9 55 -10 66
-19 110 -32 160 -7 30 -15 69 -18 85 -12 66 -92 323 -123 394 -8 18 -16 39
-18 45 -7 37 -125 286 -147 314 -6 6 -7 12 -4 12 4 0 -2 13 -13 29 -12 16 -21
31 -21 34 0 13 -192 311 -210 327 -4 3 -26 32 -51 65 -43 59 -66 85 -164 194
-63 68 -203 206 -251 246 -20 17 -44 37 -53 46 -26 24 -192 151 -241 184 -25
16 -47 33 -50 36 -6 7 -201 129 -206 129 -3 0 -21 11 -42 23 -34 22 -225 119
-297 152 -233 106 -594 225 -784 260 -22 4 -82 16 -151 31 -107 22 -307 47
-475 60 -85 6 -523 13 -528 8z m-1704 -3810 c53 -59 211 -217 269 -269 113
-102 291 -245 306 -245 6 0 12 -3 14 -8 5 -12 135 -102 147 -102 6 0 11 -4 11
-8 0 -5 17 -17 38 -29 20 -11 55 -30 77 -43 191 -112 442 -217 640 -269 88
-22 265 -52 276 -46 4 3 10 1 13 -4 7 -10 402 -7 456 4 30 6 106 22 190 40 72
16 244 76 301 105 21 11 45 20 54 20 8 0 15 4 15 9 0 5 10 13 23 17 78 24 320
185 497 331 85 71 346 338 429 441 46 56 87 102 91 102 3 0 31 -28 61 -62 30
-34 63 -71 74 -83 11 -11 54 -59 95 -105 41 -47 86 -97 100 -111 14 -14 40
-44 59 -65 19 -22 52 -58 74 -81 l40 -42 -45 -53 c-42 -49 -217 -224 -279
-279 -15 -13 -44 -40 -65 -59 -22 -19 -64 -55 -94 -80 -30 -25 -56 -48 -58
-52 -2 -5 -10 -8 -17 -8 -7 0 -15 -4 -17 -8 -1 -5 -30 -28 -63 -53 -33 -24
-62 -47 -65 -50 -5 -6 -168 -116 -198 -134 -9 -5 -30 -19 -47 -30 -16 -11 -39
-25 -50 -31 -11 -6 -49 -28 -85 -48 -100 -57 -300 -155 -300 -148 0 4 -4 3 -8
-3 -4 -5 -23 -16 -42 -24 -169 -65 -230 -87 -329 -117 -63 -19 -126 -37 -140
-39 -14 -3 -36 -7 -48 -10 -52 -12 -62 -14 -94 -19 -19 -3 -44 -8 -56 -10 -12
-3 -50 -8 -85 -11 -35 -4 -81 -9 -103 -11 -51 -6 -360 -5 -400 0 -16 2 -58 7
-92 11 -34 4 -68 8 -75 9 -7 2 -31 6 -53 10 -22 4 -78 17 -125 28 -47 11 -92
21 -100 23 -68 15 -276 94 -385 146 -49 23 -93 43 -97 43 -4 1 -13 7 -19 14
-7 6 -17 12 -22 12 -10 0 -247 140 -291 173 -70 49 -258 192 -281 212 -16 14
-55 46 -85 72 -58 50 -420 410 -420 418 0 5 -42 54 -77 90 -21 22 -21 24 -4
41 9 11 82 102 161 204 79 102 146 187 150 190 3 3 18 23 35 45 16 22 35 46
42 53 7 7 13 18 13 23 0 20 23 7 63 -37z"/>
</g>
</svg>
